<mxfile host="Electron" modified="2024-12-15T14:24:59.006Z" agent="Mozilla/5.0 (Windows NT 10.0; Win64; x64) AppleWebKit/537.36 (KHTML, like Gecko) draw.io/24.5.1 Chrome/124.0.6367.207 Electron/30.0.6 Safari/537.36" etag="5LDeGJfTsKe0X3G5AFPg" version="24.5.1" type="device">
  <diagram name="Page-1" id="aBq-5xTSeBzy7cAwyekH">
    <mxGraphModel dx="1017" dy="1250" grid="1" gridSize="10" guides="1" tooltips="1" connect="1" arrows="1" fold="1" page="1" pageScale="1" pageWidth="850" pageHeight="1100" math="0" shadow="0">
      <root>
        <mxCell id="0" />
        <mxCell id="1" parent="0" />
        <mxCell id="C3kmkAcKCiiMI4VWRe_f-35" value="sendMessage()" style="html=1;align=left;spacingLeft=2;endArrow=block;rounded=0;edgeStyle=orthogonalEdgeStyle;curved=0;rounded=0;" edge="1" parent="1">
          <mxGeometry relative="1" as="geometry">
            <mxPoint x="580" y="560.06" as="sourcePoint" />
            <Array as="points">
              <mxPoint x="610" y="590.06" />
            </Array>
            <mxPoint x="585" y="590.001176470588" as="targetPoint" />
          </mxGeometry>
        </mxCell>
        <mxCell id="C3kmkAcKCiiMI4VWRe_f-33" value="FormatMessage()" style="html=1;align=left;spacingLeft=2;endArrow=block;rounded=0;edgeStyle=orthogonalEdgeStyle;curved=0;rounded=0;" edge="1" parent="1">
          <mxGeometry relative="1" as="geometry">
            <mxPoint x="580" y="509.99999999999994" as="sourcePoint" />
            <Array as="points">
              <mxPoint x="610" y="540" />
            </Array>
            <mxPoint x="585" y="539.998823529412" as="targetPoint" />
          </mxGeometry>
        </mxCell>
        <mxCell id="C3kmkAcKCiiMI4VWRe_f-28" value="Dequeue()" style="html=1;align=left;spacingLeft=2;endArrow=block;rounded=0;edgeStyle=orthogonalEdgeStyle;curved=0;rounded=0;" edge="1" parent="1">
          <mxGeometry relative="1" as="geometry">
            <mxPoint x="430" y="420" as="sourcePoint" />
            <Array as="points">
              <mxPoint x="460" y="450" />
            </Array>
            <mxPoint x="435" y="450" as="targetPoint" />
          </mxGeometry>
        </mxCell>
        <mxCell id="C3kmkAcKCiiMI4VWRe_f-23" value="IsEmpty()" style="html=1;align=left;spacingLeft=2;endArrow=block;rounded=0;edgeStyle=orthogonalEdgeStyle;curved=0;rounded=0;" edge="1" parent="1">
          <mxGeometry relative="1" as="geometry">
            <mxPoint x="430" y="330" as="sourcePoint" />
            <Array as="points">
              <mxPoint x="460" y="360" />
            </Array>
            <mxPoint x="435" y="360" as="targetPoint" />
          </mxGeometry>
        </mxCell>
        <mxCell id="C3kmkAcKCiiMI4VWRe_f-1" value="Telematics: Websockets" style="shape=umlLifeline;perimeter=lifelinePerimeter;whiteSpace=wrap;html=1;container=1;dropTarget=0;collapsible=0;recursiveResize=0;outlineConnect=0;portConstraint=eastwest;newEdgeStyle={&quot;edgeStyle&quot;:&quot;elbowEdgeStyle&quot;,&quot;elbow&quot;:&quot;vertical&quot;,&quot;curved&quot;:0,&quot;rounded&quot;:0};" vertex="1" parent="1">
          <mxGeometry x="380" y="230" width="110" height="540" as="geometry" />
        </mxCell>
        <mxCell id="C3kmkAcKCiiMI4VWRe_f-9" value="" style="html=1;points=[[0,0,0,0,5],[0,1,0,0,-5],[1,0,0,0,5],[1,1,0,0,-5]];perimeter=orthogonalPerimeter;outlineConnect=0;targetShapes=umlLifeline;portConstraint=eastwest;newEdgeStyle={&quot;curved&quot;:0,&quot;rounded&quot;:0};" vertex="1" parent="C3kmkAcKCiiMI4VWRe_f-1">
          <mxGeometry x="45" y="85" width="10" height="165" as="geometry" />
        </mxCell>
        <mxCell id="C3kmkAcKCiiMI4VWRe_f-2" value="Telematics: CANBus" style="shape=umlLifeline;perimeter=lifelinePerimeter;whiteSpace=wrap;html=1;container=1;dropTarget=0;collapsible=0;recursiveResize=0;outlineConnect=0;portConstraint=eastwest;newEdgeStyle={&quot;edgeStyle&quot;:&quot;elbowEdgeStyle&quot;,&quot;elbow&quot;:&quot;vertical&quot;,&quot;curved&quot;:0,&quot;rounded&quot;:0};" vertex="1" parent="1">
          <mxGeometry x="530" y="230" width="100" height="540" as="geometry" />
        </mxCell>
        <mxCell id="C3kmkAcKCiiMI4VWRe_f-30" value="" style="html=1;points=[[0,0,0,0,5],[0,1,0,0,-5],[1,0,0,0,5],[1,1,0,0,-5]];perimeter=orthogonalPerimeter;outlineConnect=0;targetShapes=umlLifeline;portConstraint=eastwest;newEdgeStyle={&quot;curved&quot;:0,&quot;rounded&quot;:0};" vertex="1" parent="C3kmkAcKCiiMI4VWRe_f-2">
          <mxGeometry x="45" y="270" width="10" height="110" as="geometry" />
        </mxCell>
        <mxCell id="C3kmkAcKCiiMI4VWRe_f-16" value="Telematics: MessageDispatcher" style="shape=umlLifeline;perimeter=lifelinePerimeter;whiteSpace=wrap;html=1;container=1;dropTarget=0;collapsible=0;recursiveResize=0;outlineConnect=0;portConstraint=eastwest;newEdgeStyle={&quot;edgeStyle&quot;:&quot;elbowEdgeStyle&quot;,&quot;elbow&quot;:&quot;vertical&quot;,&quot;curved&quot;:0,&quot;rounded&quot;:0};" vertex="1" parent="1">
          <mxGeometry x="210" y="230" width="120" height="540" as="geometry" />
        </mxCell>
        <mxCell id="C3kmkAcKCiiMI4VWRe_f-17" value="" style="html=1;points=[[0,0,0,0,5],[0,1,0,0,-5],[1,0,0,0,5],[1,1,0,0,-5]];perimeter=orthogonalPerimeter;outlineConnect=0;targetShapes=umlLifeline;portConstraint=eastwest;newEdgeStyle={&quot;curved&quot;:0,&quot;rounded&quot;:0};" vertex="1" parent="C3kmkAcKCiiMI4VWRe_f-16">
          <mxGeometry x="55" y="60" width="10" height="430" as="geometry" />
        </mxCell>
        <mxCell id="C3kmkAcKCiiMI4VWRe_f-18" value="Poll()" style="html=1;verticalAlign=bottom;endArrow=block;curved=0;rounded=0;entryX=0;entryY=0;entryDx=0;entryDy=5;entryPerimeter=0;" edge="1" parent="1" target="C3kmkAcKCiiMI4VWRe_f-17">
          <mxGeometry width="80" relative="1" as="geometry">
            <mxPoint x="130" y="295" as="sourcePoint" />
            <mxPoint x="260" y="300" as="targetPoint" />
          </mxGeometry>
        </mxCell>
        <mxCell id="C3kmkAcKCiiMI4VWRe_f-24" value="IsMessageAvailable()" style="html=1;verticalAlign=bottom;endArrow=block;curved=0;rounded=0;entryX=0;entryY=0;entryDx=0;entryDy=5;entryPerimeter=0;" edge="1" parent="1" source="C3kmkAcKCiiMI4VWRe_f-17" target="C3kmkAcKCiiMI4VWRe_f-9">
          <mxGeometry y="5" width="80" relative="1" as="geometry">
            <mxPoint x="290" y="400" as="sourcePoint" />
            <mxPoint x="370" y="400" as="targetPoint" />
            <mxPoint as="offset" />
          </mxGeometry>
        </mxCell>
        <mxCell id="C3kmkAcKCiiMI4VWRe_f-25" value="True" style="html=1;verticalAlign=bottom;endArrow=open;dashed=1;endSize=8;curved=0;rounded=0;" edge="1" parent="1">
          <mxGeometry relative="1" as="geometry">
            <mxPoint x="425" y="390" as="sourcePoint" />
            <mxPoint x="275" y="390" as="targetPoint" />
          </mxGeometry>
        </mxCell>
        <mxCell id="C3kmkAcKCiiMI4VWRe_f-26" value="GetMessage()" style="html=1;verticalAlign=bottom;endArrow=block;curved=0;rounded=0;" edge="1" parent="1">
          <mxGeometry width="80" relative="1" as="geometry">
            <mxPoint x="275" y="410" as="sourcePoint" />
            <mxPoint x="425" y="410" as="targetPoint" />
          </mxGeometry>
        </mxCell>
        <mxCell id="C3kmkAcKCiiMI4VWRe_f-29" value="Message" style="html=1;verticalAlign=bottom;endArrow=open;dashed=1;endSize=8;curved=0;rounded=0;" edge="1" parent="1">
          <mxGeometry relative="1" as="geometry">
            <mxPoint x="425" y="460" as="sourcePoint" />
            <mxPoint x="275" y="460" as="targetPoint" />
            <mxPoint as="offset" />
          </mxGeometry>
        </mxCell>
        <mxCell id="C3kmkAcKCiiMI4VWRe_f-31" value="SendMessage()" style="html=1;verticalAlign=bottom;endArrow=block;curved=0;rounded=0;entryX=0;entryY=0;entryDx=0;entryDy=5;entryPerimeter=0;" edge="1" parent="1" target="C3kmkAcKCiiMI4VWRe_f-30">
          <mxGeometry width="80" relative="1" as="geometry">
            <mxPoint x="275" y="504.9999999999998" as="sourcePoint" />
            <mxPoint x="390" y="520" as="targetPoint" />
          </mxGeometry>
        </mxCell>
        <mxCell id="C3kmkAcKCiiMI4VWRe_f-46" value="Alt" style="shape=umlFrame;whiteSpace=wrap;html=1;pointerEvents=0;" vertex="1" parent="1">
          <mxGeometry x="190" y="370" width="530" height="380" as="geometry" />
        </mxCell>
        <mxCell id="C3kmkAcKCiiMI4VWRe_f-47" value="[True]" style="text;html=1;align=center;verticalAlign=middle;resizable=0;points=[];autosize=1;strokeColor=none;fillColor=none;" vertex="1" parent="1">
          <mxGeometry x="190" y="400" width="50" height="30" as="geometry" />
        </mxCell>
        <mxCell id="C3kmkAcKCiiMI4VWRe_f-48" value="" style="endArrow=none;dashed=1;html=1;rounded=0;entryX=1.002;entryY=0.63;entryDx=0;entryDy=0;entryPerimeter=0;exitX=0.003;exitY=0.63;exitDx=0;exitDy=0;exitPerimeter=0;" edge="1" parent="1">
          <mxGeometry width="50" height="50" relative="1" as="geometry">
            <mxPoint x="190.52999999999992" y="640.0000000000001" as="sourcePoint" />
            <mxPoint x="720.0000000000002" y="640.0000000000001" as="targetPoint" />
          </mxGeometry>
        </mxCell>
        <mxCell id="C3kmkAcKCiiMI4VWRe_f-49" value="[False]" style="text;html=1;align=center;verticalAlign=middle;resizable=0;points=[];autosize=1;strokeColor=none;fillColor=none;" vertex="1" parent="1">
          <mxGeometry x="190" y="640" width="60" height="30" as="geometry" />
        </mxCell>
        <mxCell id="C3kmkAcKCiiMI4VWRe_f-51" value="" style="html=1;points=[[0,0,0,0,5],[0,1,0,0,-5],[1,0,0,0,5],[1,1,0,0,-5]];perimeter=orthogonalPerimeter;outlineConnect=0;targetShapes=umlLifeline;portConstraint=eastwest;newEdgeStyle={&quot;curved&quot;:0,&quot;rounded&quot;:0};" vertex="1" parent="1">
          <mxGeometry x="430" y="640" width="10" height="50" as="geometry" />
        </mxCell>
        <mxCell id="C3kmkAcKCiiMI4VWRe_f-52" value="False" style="html=1;verticalAlign=bottom;endArrow=open;dashed=1;endSize=8;curved=0;rounded=0;exitX=0;exitY=1;exitDx=0;exitDy=-5;exitPerimeter=0;" edge="1" parent="1" source="C3kmkAcKCiiMI4VWRe_f-51" target="C3kmkAcKCiiMI4VWRe_f-17">
          <mxGeometry relative="1" as="geometry">
            <mxPoint x="390" y="680" as="sourcePoint" />
            <mxPoint x="310" y="680" as="targetPoint" />
          </mxGeometry>
        </mxCell>
      </root>
    </mxGraphModel>
  </diagram>
</mxfile>
